<svg width="10" height="11" viewBox="0 0 10 11" fill="none" xmlns="http://www.w3.org/2000/svg">
<rect y="0.689941" width="10" height="10" rx="5" fill="#313131"/>
<path fill-rule="evenodd" clip-rule="evenodd" d="M6.54622 10.4457C6.05921 10.6041 5.53948 10.6897 4.99987 10.6897C4.45989 10.6897 3.93982 10.604 3.45253 10.4454C3.67763 10.4724 3.7608 10.3258 3.7608 10.1993C3.7608 10.1442 3.75986 10.047 3.7586 9.91707C3.75715 9.76667 3.75527 9.57234 3.75393 9.34841C2.36299 9.65078 2.06955 8.67763 2.06955 8.67763C1.84236 8.09975 1.51455 7.94588 1.51455 7.94588C1.06049 7.63533 1.54893 7.64164 1.54893 7.64164C2.05049 7.67699 2.31455 8.1573 2.31455 8.1573C2.7608 8.92191 3.48487 8.70114 3.76987 8.57289C3.81518 8.24957 3.94455 8.02904 4.08736 7.90398C2.97705 7.77768 1.80986 7.34861 1.80986 5.43135C1.80986 4.88501 2.00455 4.4385 2.32455 4.08855C2.27299 3.96193 2.10143 3.45344 2.3733 2.76452C2.3733 2.76452 2.7933 2.63003 3.7483 3.27737C4.14736 3.16633 4.57486 3.11104 5.00018 3.10878C5.42486 3.11096 5.85268 3.16633 6.25205 3.27737C7.20643 2.63003 7.62549 2.76452 7.62549 2.76452C7.8983 3.45344 7.72674 3.96193 7.67518 4.08855C7.9958 4.4385 8.18924 4.88501 8.18924 5.43135C8.18924 7.35328 7.02018 7.77643 5.90643 7.90024C6.0858 8.05474 6.2458 8.35991 6.2458 8.82683C6.2458 9.27411 6.24301 9.66349 6.24116 9.92151C6.24024 10.0494 6.23955 10.145 6.23955 10.1994C6.23955 10.3265 6.32072 10.4734 6.54622 10.4457Z" fill="white"/>
</svg>
