<svg width="48" height="11" viewBox="0 0 48 11" fill="none" xmlns="http://www.w3.org/2000/svg">
<g clip-path="url(#clip0_3863_4782)">
<path d="M36.536 1.10624C36.536 1.02323 36.536 0.952077 36.5242 0.869066C36.477 0.477726 36.229 0.276127 35.863 0.228692C35.5087 0.181257 35.2608 0.34728 35.1073 0.667467C35.001 0.892783 35.0128 1.12996 35.0128 1.36713V3.44242C32.4741 1.84148 30.3604 2.86134 29.3331 4.11837C28.1169 5.62443 28.1287 7.85388 29.3685 9.31251C30.5966 10.7593 32.8755 11.3759 34.9538 9.95288C35.001 10.0596 35.0364 10.1308 35.06 10.2019C35.2017 10.617 35.4851 10.8304 35.9102 10.7474C36.3707 10.6644 36.536 10.3324 36.536 9.88173C36.5242 6.95261 36.536 4.0235 36.536 1.10624ZM32.4622 9.24135C31.0689 9.2295 29.9117 8.06734 29.9235 6.668C29.9353 5.28053 31.1043 4.11837 32.4977 4.11837C33.9146 4.13023 35.0246 5.25681 35.0128 6.69172C35.001 8.12663 33.8792 9.25321 32.4622 9.24135Z" fill="#836FFF"/>
<path d="M8.11095 1.07071C8.11095 0.513352 7.81575 0.205024 7.35523 0.216883C6.89472 0.216883 6.62313 0.52521 6.62313 1.09443C6.61132 1.84153 6.61132 2.58864 6.61132 3.45433C6.32793 3.30016 6.139 3.18157 5.92645 3.07485C3.9545 2.06685 1.59287 2.77838 0.518335 4.6995C-0.556204 6.63247 0.0578181 9.01609 1.97073 10.1664C3.3759 11.0084 4.80468 10.9609 6.22166 10.1427C6.37516 10.0478 6.55228 9.77505 6.65856 10.2257C6.76483 10.6407 7.10726 10.8305 7.52055 10.7356C7.94564 10.6407 8.11095 10.3206 8.11095 9.89364C8.11095 6.95266 8.12276 4.01169 8.11095 1.07071ZM4.07258 9.2414C2.66741 9.2414 1.52202 8.10296 1.51022 6.70363C1.49841 5.31615 2.6556 4.14213 4.04896 4.13028C5.44232 4.11842 6.61132 5.28058 6.61132 6.67991C6.62313 8.07924 5.46594 9.2414 4.07258 9.2414Z" fill="#836FFF"/>
<path d="M45.0606 7.66432C44.6237 7.30856 44.2576 7.45087 43.7145 8.19797C42.8525 9.37199 41.2938 9.58544 40.1248 8.68418C40.3019 8.47072 40.5617 8.35213 40.7979 8.22169C42.1204 7.45087 43.4547 6.6919 44.7772 5.92108C45.4266 5.5416 45.5093 5.18584 45.1314 4.55733C44.2222 3.06312 42.3801 2.30416 40.7034 2.73108C38.9322 3.18171 37.7041 4.69963 37.6215 6.53774C37.5388 8.29284 38.6606 9.95306 40.3019 10.5341C42.0023 11.1271 43.8798 10.5697 44.9425 9.13481C45.4266 8.43514 45.4621 7.98451 45.0606 7.66432ZM39.1211 6.91722C39.0384 5.87365 39.6052 4.84194 40.5381 4.3913C41.5063 3.91695 42.6045 4.09484 43.4665 4.92495C42.144 5.69577 40.8451 6.44287 39.5698 7.20183C39.1801 7.41529 39.1447 7.22555 39.1211 6.91722Z" fill="#836FFF"/>
<path d="M16.5805 7.62874C16.1672 7.35599 15.7894 7.46272 15.506 7.86592C15.4469 7.94893 15.3997 8.03194 15.3525 8.11495C14.5023 9.34826 12.9672 9.5973 11.6801 8.66045C11.7628 8.60116 11.81 8.55373 11.8573 8.53001C13.2742 7.71175 14.6794 6.88164 16.0964 6.06339C17.0292 5.52974 17.1237 5.06725 16.4861 4.21342C15.0927 2.35159 12.4359 2.05512 10.6292 3.57304C8.90524 5.00796 8.71631 7.72361 10.2396 9.40756C12.0934 11.4591 15.4233 11.1034 16.7813 8.70789C17.0056 8.28097 16.9938 7.90149 16.5805 7.62874ZM10.7001 6.84606C10.5938 5.8855 11.2078 4.84193 12.1289 4.3913C13.1089 3.90509 14.1835 4.09483 15.0455 4.92494C13.723 5.69576 12.4241 6.44287 11.1488 7.20183C10.6528 7.48644 10.7237 7.08324 10.7001 6.84606Z" fill="#836FFF"/>
<path d="M18.1016 6.92905C18.1016 3.60859 21.3724 1.64004 24.0765 3.09867C24.596 3.38328 24.785 3.83391 24.5606 4.24897C24.3481 4.64031 23.923 4.71146 23.3798 4.43871C22.2108 3.86949 20.9709 4.13038 20.1916 5.1028C19.4123 6.08707 19.4123 7.35596 20.2034 8.31652C20.9827 9.27708 22.2344 9.51426 23.3916 8.92132C23.923 8.64857 24.3599 8.73158 24.5724 9.14664C24.785 9.54983 24.6315 9.97675 24.1119 10.2614C22.8248 10.961 21.5023 10.9729 20.227 10.2732C18.8337 9.49054 18.1488 8.26909 18.1016 6.92905Z" fill="#836FFF"/>
<path d="M47.9996 4.39109C47.9996 5.41095 47.9996 6.44266 47.9996 7.46251C47.9996 8.04359 47.7517 8.34006 47.2793 8.34006C46.7362 8.3282 46.5118 8.00802 46.5118 7.49809C46.5118 5.41095 46.5 3.3238 46.5 1.2248C46.5 0.738593 46.6889 0.370971 47.2439 0.347253C47.7399 0.335395 47.9996 0.643723 47.9996 1.24852C47.9996 2.30395 47.9996 3.34752 47.9996 4.39109Z" fill="#FE911A"/>
<path d="M27.3353 7.94873C27.3353 8.61282 27.3353 9.28877 27.3353 9.95286C27.3353 10.4509 27.0755 10.7474 26.5914 10.7355C26.1309 10.7355 25.8711 10.4509 25.8711 9.97658C25.8711 8.61282 25.8711 7.26092 25.8711 5.89716C25.8711 5.39909 26.1309 5.09077 26.615 5.10263C27.0991 5.11448 27.3353 5.43467 27.3353 5.93274C27.3235 6.62055 27.3353 7.28464 27.3353 7.94873Z" fill="#FE911A"/>
<path d="M47.989 9.97659C48.0008 10.4509 47.7056 10.7711 47.2451 10.7593C46.7728 10.7474 46.5366 10.4747 46.5012 10.024C46.4776 9.5734 46.8082 9.22949 47.2451 9.22949C47.6938 9.24135 47.989 9.52596 47.989 9.97659Z" fill="#FE911A"/>
<path d="M26.6036 2.70728C27.0405 2.77843 27.3357 2.99189 27.3239 3.46624C27.3239 3.92873 27.0759 4.20148 26.6154 4.23706C26.1785 4.27263 25.8479 3.91687 25.8597 3.45438C25.8715 2.96817 26.1667 2.76657 26.6036 2.70728Z" fill="#FE911A"/>
</g>
<defs>
<clipPath id="clip0_3863_4782">
<rect width="48" height="11" fill="white"/>
</clipPath>
</defs>
</svg>
