<svg width="13" height="8" viewBox="0 0 13 8" fill="none" xmlns="http://www.w3.org/2000/svg">
<path d="M5.84922 4.57938L2.23246 1.32327H10.7675L7.15018 4.57992L7.15008 4.58001C6.97714 4.73653 6.7465 4.82336 6.5 4.82336C6.25352 4.82336 6.02288 4.73653 5.84931 4.57946L5.84922 4.57938ZM11.0332 0.639941H1.9668C1.40973 0.639941 0.95 1.05182 0.95 1.56494V6.81494C0.95 7.33112 1.41313 7.73994 1.9668 7.73994H11.0332C11.5855 7.73994 12.05 7.33287 12.05 6.81494V1.56494C12.05 1.05276 11.5921 0.639941 11.0332 0.639941ZM1.69453 6.584V1.79633L4.35497 4.19148L1.69453 6.584ZM4.88668 4.67014L5.32707 5.06662L5.32716 5.06671C5.64117 5.35086 6.05791 5.50669 6.5 5.50669C6.94212 5.50669 7.3589 5.35084 7.67233 5.06717L8.11332 4.67014L10.767 7.05661H2.23297L4.88668 4.67014ZM11.3055 1.79633V6.584L8.64503 4.19148L11.3055 1.79633Z" fill="#4E4E4E" stroke="#4E4E4E" stroke-width="0.1"/>
</svg>
