<svg width="10" height="11" viewBox="0 0 10 11" fill="none" xmlns="http://www.w3.org/2000/svg">
<path d="M9.38459 8.38285L9.3846 8.38286C9.5242 8.52216 9.55702 8.81177 9.37105 9.03421L8.43563 9.96765L8.78881 10.3216L8.43563 9.96766C8.30522 10.0978 8.0949 10.1893 7.76012 10.1899C7.42125 10.1906 6.99016 10.096 6.48729 9.89004C5.48333 9.47887 4.28836 8.66288 3.14857 7.52548C2.01039 6.38969 1.20509 5.19813 0.798944 4.19647C0.595536 3.69482 0.501265 3.26302 0.500013 2.92235C0.498781 2.58732 0.585918 2.37631 0.70649 2.24727L1.65021 1.30553C1.79042 1.16561 2.08238 1.13293 2.30592 1.31905L3.69084 2.70106C3.93943 2.94912 3.81488 3.33215 3.54764 3.4142L3.5476 3.41408L3.53661 3.41773C3.07414 3.57154 2.88702 3.95975 2.84381 4.30416C2.80334 4.62675 2.87395 4.96363 2.9607 5.22334L2.98194 5.28694L3.01919 5.34269C3.68221 6.33513 4.35571 7.00719 5.3501 7.66873L5.42774 7.72038L5.51878 7.74057C5.74412 7.79055 6.06999 7.85386 6.37644 7.81992C6.53589 7.80227 6.71904 7.75567 6.88693 7.64348C7.06313 7.52574 7.1938 7.35458 7.26525 7.14069L7.26538 7.14073L7.26881 7.12961C7.35054 6.86453 7.73581 6.73753 7.98613 6.98732L9.38459 8.38285Z" stroke="#4E4E4E"/>
</svg>
