<svg width="10" height="11" viewBox="0 0 10 11" fill="none" xmlns="http://www.w3.org/2000/svg">
<rect y="0.689941" width="10" height="10" rx="5" fill="#419FD9"/>
<rect y="0.689941" width="10" height="10" rx="5" fill="url(#paint0_linear_1944_50)"/>
<path d="M2.24737 5.57956C3.70139 4.93275 4.67097 4.50633 5.1561 4.30031C6.54124 3.71207 6.82906 3.60989 7.01666 3.60648C7.05792 3.60577 7.15017 3.61621 7.20993 3.66572C7.26039 3.70753 7.27428 3.764 7.28092 3.80363C7.28756 3.84327 7.29584 3.93356 7.28926 4.00411C7.2142 4.80937 6.88941 6.7635 6.72417 7.6654C6.65426 8.04703 6.51659 8.17499 6.38331 8.18751C6.09366 8.21472 5.87372 7.99207 5.59318 7.80431C5.1542 7.5105 4.9062 7.3276 4.48009 7.0409C3.98764 6.70956 4.30688 6.52746 4.58752 6.22984C4.66096 6.15196 5.93715 4.96677 5.96185 4.85925C5.96494 4.8458 5.96781 4.79568 5.93864 4.76921C5.90948 4.74275 5.86644 4.7518 5.83538 4.759C5.79135 4.7692 5.09006 5.24246 3.73153 6.17879C3.53247 6.31835 3.35217 6.38635 3.19063 6.38279C3.01254 6.37886 2.66997 6.27998 2.41531 6.19546C2.10295 6.09179 1.85469 6.03698 1.87631 5.86092C1.88757 5.76921 2.01126 5.67543 2.24737 5.57956Z" fill="white"/>
<defs>
<linearGradient id="paint0_linear_1944_50" x1="5" y1="0.689941" x2="5" y2="10.6157" gradientUnits="userSpaceOnUse">
<stop stop-color="#2AABEE"/>
<stop offset="1" stop-color="#229ED9"/>
</linearGradient>
</defs>
</svg>
